<svg
              width="30"
              height="45"
              viewBox="0 0 45 60"
              fill="none"
              xmlns="http://www.w3.org/2000/svg"
            >
              <path
                d="M43.5 21.0521C43.5 23.4771 42.618 26.2028 41.0651 29.2164C39.5183 32.218 37.3712 35.3834 34.9753 38.6704C33.903 40.1417 32.7771 41.6408 31.6384 43.1569C28.3739 47.5036 25.0038 51.9909 22.4859 56.3664C19.9527 52.0074 16.7438 47.6265 13.654 43.4082C12.4344 41.7432 11.2333 40.1034 10.0997 38.5004C7.79907 35.2471 5.76033 32.1299 4.29805 29.169C2.83174 26.1999 2 23.4952 2 21.0521C2 10.8547 11.4048 1.5 22.5 1.5C33.6396 1.5 43.5 10.8969 43.5 21.0521Z"
                fill="white"
                stroke="#4F80FF"
                stroke-width="3"
              />
              <path
                d="M30.8125 12C30.4976 12 30.1955 12.137 29.9728 12.3808C29.7501 12.6246 29.625 12.9552 29.625 13.3V20.398L28.4375 21.269V13.3C28.4375 12.9552 28.3124 12.6246 28.0897 12.3808C27.867 12.137 27.5649 12 27.25 12C26.9351 12 26.633 12.137 26.4103 12.3808C26.1876 12.6246 26.0625 12.9552 26.0625 13.3V21.269L24.875 20.398V13.3C24.875 12.9552 24.7499 12.6246 24.5272 12.3808C24.3045 12.137 24.0024 12 23.6875 12C23.3726 12 23.0705 12.137 22.8478 12.3808C22.6251 12.6246 22.5 12.9552 22.5 13.3V21.1C22.501 21.3141 22.5503 21.5246 22.6435 21.7129C22.7368 21.9011 22.871 22.0612 23.0344 22.179L26.0625 24.402V36.7C26.0625 37.0448 26.1876 37.3754 26.4103 37.6192C26.633 37.863 26.9351 38 27.25 38C27.5649 38 27.867 37.863 28.0897 37.6192C28.3124 37.3754 28.4375 37.0448 28.4375 36.7V24.402L31.4656 22.179C31.629 22.0612 31.7632 21.9011 31.8565 21.7129C31.9497 21.5246 31.999 21.3141 32 21.1V13.3C32 12.9552 31.8749 12.6246 31.6522 12.3808C31.4295 12.137 31.1274 12 30.8125 12ZM18.9375 12C17.3628 12 15.8526 12.6848 14.7391 13.9038C13.6256 15.1228 13 16.7761 13 18.5V26.3C13 26.6448 13.1251 26.9754 13.3478 27.2192C13.5705 27.463 13.8726 27.6 14.1875 27.6H17.75V36.7C17.75 37.0448 17.8751 37.3754 18.0978 37.6192C18.3205 37.863 18.6226 38 18.9375 38C19.2524 38 19.5545 37.863 19.7772 37.6192C19.9999 37.3754 20.125 37.0448 20.125 36.7V13.3C20.125 12.9552 19.9999 12.6246 19.7772 12.3808C19.5545 12.137 19.2524 12 18.9375 12ZM17.75 25H15.375V18.5C15.3746 17.6932 15.6028 16.906 16.0282 16.2471C16.4536 15.5882 17.0551 15.0899 17.75 14.821V25Z"
                fill="#4F80FF"
              />
            </svg>